<svg xmlns="http://www.w3.org/2000/svg" viewBox="0 0 525.7 184.4"><defs><style>.cls-1{fill:#da291c;}</style></defs><title>Asset 1</title><g id="Layer_2" data-name="Layer 2"><g id="Layer_1-2" data-name="Layer 1"><path d="M78.1,77.8l23.5,70.7,23.9-70.7H155L117.5,182H83.7L45.5,77.8Z"/><path d="M226.4,181.9a85.6,85.6,0,0,1-1-14.2c-11.5,16.7-25.4,16.7-31.1,16.7-15.1,0-21.9-4.3-26-8.2a32.18,32.18,0,0,1-9.1-22.9c0-8.2,2.9-23.5,22.1-32.4,12.8-5.8,31.1-5.8,41.2-5.8,0-6.8-.2-10.1-1.4-13.8-2.7-7.6-10.7-8.7-13.6-8.7A13.81,13.81,0,0,0,196,98.4c-2.3,3.5-2.3,6.8-2.3,9.3H163.8c.2-5.6.8-16.7,11.8-24.5,9.5-6.8,21.7-8.5,31.6-8.5,8.7,0,26.8,1.4,37.1,13.4,7,8.5,7.2,20.8,7.2,25.6l.2,41.9a123.06,123.06,0,0,0,2.5,26.4l-27.8-.1Zm-37.6-32.2c0,7,4.7,14.8,14.8,14.8a17.28,17.28,0,0,0,13-6c5.4-6.6,5.8-14.6,5.8-25.8C202.8,131.2,188.8,137.4,188.8,149.7Z"/><path d="M270.2,96.3c0-.4,0-11.8-.6-19h29.3l.8,15.7c2.9-4.7,11.1-18.1,33.8-18.1,20.4,0,29.1,12.4,31.8,19.6,2.3,6.4,2.9,11.8,2.9,31.1v56.3H337.1V117.1c0-4.3,0-8-1.7-11.3a16,16,0,0,0-14.8-8.9,19.1,19.1,0,0,0-15.9,8c-1.9,2.7-3.7,7.8-3.7,15.9v61H270.3l-.1-85.5Z"/><path d="M401.5,59.6V78.4h-20V98.6h20v57.1c0,8.7,0,28,30.7,28a93.88,93.88,0,0,0,23.7-3.3v-20a79.42,79.42,0,0,1-10.3.6c-13.6,0-13.6-6-13.8-15.5v-47h24.7V78.3H431.8V51.2Z"/><path d="M.2,77.6H30.7V182H.2Z"/><path d="M474.9,77.6h30.5V182H474.9Z"/><polygon class="cls-1" points="505.4 20.3 505.4 50.8 525.7 50.8 525.7 0 474.9 0 474.9 20.3 505.4 20.3"/><rect class="cls-1" x="474.9" y="30.5" width="20.3" height="20.3"/><rect class="cls-1" y="19.9" width="30.5" height="30.5"/></g></g></svg>